<svg id="Layer_1" data-name="Layer 1" xmlns="http://www.w3.org/2000/svg" viewBox="0 0 450.57 275.89"><defs><style>.cls-1{fill:#fff;}</style></defs><title>logo_simas1</title><path class="cls-1" d="M383.65,463c-3.46,0-6.75-.58-9.75.11-7.2,1.66-14.42.45-21.61.89a17.29,17.29,0,0,1-6.11-.92c-2.7-.82-4.24-2.27-4.52-5.51,1.83-1.63,3.57-3.45,6.2-4.66,10.37-4.78,20.59-9.86,30.81-14.94,4.16-2.06,8.17-4.42,12.26-6.63a9.92,9.92,0,0,1,1.41-.5,116.77,116.77,0,0,0,3-12.07c.59-3.76,2.25-7.19,2.57-11a51.53,51.53,0,0,1,2.22-9.54,80.63,80.63,0,0,0,2.71-11.39c.39-2.92,1.83-5.58,2.3-8.56a80.5,80.5,0,0,1,2.67-9.87c1.33-4.47,2.43-9,3.47-13.54,1.12-4.86,3-9.52,3.65-14.54.49-3.79,2.1-7.43,3.2-11.14l1.84-6.17c-1,0-2-.29-2.57,0-6.6,3.78-14.26,5-20.88,8.75-4.18.28-7,3.91-11.23,4.37-1.15.13-1.88,2.3-3.7,1.84-4.66,3.09-10.16,4.43-15,7.37A128.34,128.34,0,0,1,353.84,352c-.84.39-2.06.42-2.53,1.05-2.12,2.85-4.85,1.88-7.7,1.82,1.29-2.56,2.38-4,3.57-4.86,1.95-1.34,3.83-2.78,5.86-4s4.16-2,6.23-3.06,4.12-2.12,6.19-3.17c5.78-2.94,11.55-5.89,17.35-8.79,3.59-1.79,7.13-3.83,11-4.9s6.9-3.37,10.67-4.5c4.24-1.26,8.25-3.36,12.53-4.74,2.81-.9,6.18-2.18,6.68-5.78a10,10,0,0,1,1.53-4.85c1.22-1.55-.48-3.8,1.57-4.89,1.26-6.89,4.37-13.21,6.24-19.93a48.06,48.06,0,0,1,2.56-7.43,18.82,18.82,0,0,1,2.58-3.86H442c-4.15,14-9.34,27.42-12.77,42.17,1.74-.47,2.71-.8,3.7-1,3.37-.67,6.51-2.2,10-2.39a19.76,19.76,0,0,0,6.81-1.6c2.12-.94,4.4.52,6.58-1.16,1.14-.89,3.55,0,5.37-.2,2.53-.24,5.25,1,7.62-.93a1.58,1.58,0,0,1,1.45,0c2.71,1.85,5.74.89,8.6.91a98.17,98.17,0,0,1,16.21,1.86A72.05,72.05,0,0,1,508.87,311a31.73,31.73,0,0,1,9.48,5c2.09,1.72,4.23,3.15,5.58,5.65,1.5,2.81,3.09,5.41,2.89,8.84-.26,4.32-.15,8.67,0,13,.07,2.47-.84,4.61-1.75,6.79A55.08,55.08,0,0,1,512.3,369c-4,3.85-7.9,7.95-12.38,11.22-5.41,4-11,7.72-16.83,11.16-10.81,6.37-22.27,11.45-33.39,17.19-11,5.66-22.12,11-33.16,16.51-5.8,2.92-11.46,6.1-17.31,8.92-2.08,1-2.9,2.2-3.64,4.47-1.5,4.6-1.75,9.49-3.64,14-.41,1-.17,2.21-.24,3.62,8.21,0,16.2.41,24.12-.19a97.8,97.8,0,0,0,10.58-.91c9.69-1.83,19.45,0,29.09-1,5.88-.62,11.72-.73,17.6-.92a7.89,7.89,0,0,1,4.78,1.76,2.34,2.34,0,0,1-.42,4,12.62,12.62,0,0,1-5,1.22c-12.39-.39-24.7,1.8-37.09,1.07-.83,0-1.67,0-2.5,0-11,.09-22,1.62-33.09,1.06-1.67-.09-3.37.74-5.08.9s-3.66,0-5.59,0c-.79,3.49-1.37,7.06-2.45,10.47s-1.25,7.06-2.94,10.27c.77,3.83-1.69,7-2.21,10.64a69.78,69.78,0,0,1-2.7,10.32c-1.06,3.43-1.21,7.14-2.14,10.63s-1.64,7-2.46,10.5-1.24,7.08-2.08,10.88a10.45,10.45,0,0,1,1.55,2.25c.51,1.27-.55,2-1.3,2.94-1.11,1.33-2,2.84-2.88,4.13-1.77-.15-3.39.47-4.69-1.64-.72-2.9.78-6.07,1.38-9.26.89-4.73,2.3-9.36,3.54-14,1.64-6.16,2.93-12.4,4.75-18.52.66-2.21,1.08-4.53,1.85-6.75s.57-4.31,1.32-6.45a100.53,100.53,0,0,0,3.5-13.52C382,471.77,384.29,467.88,383.65,463Zm16.11-35.83c4.18-2.28,7.91-4.41,11.73-6.38,14.12-7.29,28.29-14.5,42.41-21.8,9.34-4.84,19-9.08,27.74-15,2.87-1.95,6.34-3,8.55-5.92,5.43-2.46,9.59-6.75,14.13-10.38a54.88,54.88,0,0,0,13.51-15.29c2.41-4.16,4.77-8.27,5.48-13.25.27-2,.22-3.86.41-5.77a6.28,6.28,0,0,0-.42-2.31c-2.06-6.76-7.8-9.79-13.3-13.06-4.15-.1-7.37-3.79-11.74-3-4.37-2.82-9.54-1.72-14.28-2.84s-25.45.07-31,.84a5.47,5.47,0,0,0-.91.21c-4.9,1.56-10,2.43-14.91,3.81-3.27.91-6.54,1.89-9.72,3a3.67,3.67,0,0,0-1.62,2.18c-.66,1.9-1.05,3.9-1.64,5.83-1.58,5.18-3.32,10.31-4.44,15.64a121.39,121.39,0,0,1-3.43,12.07c-1.33,4.14-1.81,8.48-3.45,12.55-1.21,3-1.23,6.5-2.56,9.42-.82,1.79-.14,3.44-.83,5.15-2.3,5.63-3,11.74-4.8,17.51-1.15,3.73-1.66,7.58-2.73,11.32-1.15,4-1.92,8.18-3.08,12.22C398.59,424.84,399.39,426,399.76,427.19ZM384.25,457l2.48-2.47c-.07-5.32,3.35-10.07,2.85-15.78-5.35,1.79-9.84,4.56-14.63,6.65-4.52,2-8.92,4.11-13.59,5.78-2.47.89-5.92,1.74-6.75,5.54,1.41.2,2.94,0,3.85.62a5.37,5.37,0,0,0,5.18.5c3.07-1.29,6.1-.68,9.13-.8C376.43,456.9,380.09,457,384.25,457Z" transform="translate(-76.26 -270.15)"/><path class="cls-1" d="M304.84,456.4a15.07,15.07,0,0,0,.76,5.43c1.3,3.8,1,8.07,3.15,11.71a.82.82,0,0,1,0,.49c-.73,4.12,1.22,8,1,12.08s.46,8.07-.17,12c-.68,4.26-.82,8.77-3.1,12.67-2.13,3.64-4.09,7.34-6.58,10.81a39.58,39.58,0,0,1-10,9.65,37.22,37.22,0,0,1-12.58,5.73c-2.45.56-4.88,1.32-7.57,1.16-5.66-.34-9.48-3.56-12.86-7.53a6.1,6.1,0,0,1-1.1-3.51c-.13-4-.45-8,.13-12a36.59,36.59,0,0,1,.94-5.57c.82-2.62,2.31-5,3.43-7.57,3.21-7.24,7.86-13.52,12.63-19.78,2-2.63,4.28-4.88,6.45-7.3,2.61-2.9,4.83-6.31,7.87-8.65,3.8-2.93,6.95-6.46,10.75-9.88-1.21-3.69-2.43-7.51-3.73-11.3s-2.6-7.26-3.87-10.89c-2.36-6.73-3.7-12-2.48-17.36C289,411.86,291,407,295.86,404c2.61-1.62,5.13-3.17,8.28-2.88,1,.08,1.87.86,3,1.41-1.57,3.38-5.14,4-6.9,6.49-.2.3-1.2.16-1.27.4-.85,2.86-3.81,4-5.17,6.36a8,8,0,0,0-1,3.07c-.58,5,.64,9.76,2.61,14.39,2.23,5.24,4.26,10.56,6.33,15.87a5.56,5.56,0,0,1,0,1.71h3.58c9.64-9,26.2-18.58,32.85-18.44-.82,1.08-1.31,2.44-2.05,2.59-4.95,1-8.55,4.44-12.61,6.95a60.84,60.84,0,0,0-10.24,8C310.78,452.29,307.77,454.17,304.84,456.4Zm-5.68,5.66c-4.86,4.88-9.92,9.71-14.68,14.81A98.77,98.77,0,0,0,274,489.5,100,100,0,0,0,264.34,507c-2.37,5.91-4.44,12.1-3.45,18.49.88,5.71,3.24,8.13,9.14,7.69,5.64-.41,10.13-2.79,14.75-5.56,3.62-2.17,6-5.54,9.09-8.19a22,22,0,0,0,5.78-8.1c1.75-4.1,4.57-7.95,4.11-12.79,1.83-1.38.18-3.73,1.16-5,1.47-1.91.69-3.83.76-5.69.05-1.52-.86-3.05-.87-4.58-.05-4.51-1.19-8.85-2.22-13.13C301.93,467.41,302.17,464,299.16,462.06Z" transform="translate(-76.26 -270.15)"/><path class="cls-1" d="M229.35,408.25c0-13.33,0-26.66,0-40a8.27,8.27,0,0,0-3.23-6.67,22,22,0,0,0-3.53-2.33c-5.71-3.18-11.45-6.26-16.9-9.93-3.69-2.48-8.23-3.7-11.87-6.23-7.45-5.17-15.71-8.92-23.29-13.84-3-1.94-6.17-3.63-9.21-5.52-5.69-3.53-11.28-3.66-16.91,0-1.46.94-3,1.7-4.45,2.55-4.84,2.8-9.55,5.8-14.51,8.42-5.36,2.83-10.35,6.37-15.6,9.43-3.33,1.94-7,3.31-10.25,5.39C93.88,353.26,87.92,356.65,82,360c-3.74,2.11-5.66,4.76-5.65,9.14.08,25.66.12,51.32,0,77,0,4.11,1.6,7.09,4.67,9,5.76,3.63,11.92,6.63,17.78,10.12,5.47,3.25,10.76,6.81,16.59,9.44.14.06.22.25.36.34,5.06,3.06,10,6.38,15.23,9.11,5.51,2.88,10.64,6.41,16.18,9.21,2.7,1.37,5.31,2.6,8.89,1.07,3.31-1.42,6.31-3.3,9.45-4.92,5.24-2.71,10.13-6.12,15.26-9.07,3.34-1.92,7.06-3.24,10.24-5.39,8.14-5.5,16.9-9.91,25.36-14.83a89.49,89.49,0,0,0,8.78-5.32,9.93,9.93,0,0,0,4.38-8.68C229.2,433.58,229.35,420.91,229.35,408.25Zm-115-26.84h7l15,16.42L128,406.22H114.35Zm-2.25,8.66h-7.42l7.42-6.92Zm51.12,73.14-15.57-8.06,15.57-41.67Zm-13.4-18.83L114.35,408.1h48.88ZM163.23,406H132.07l31.16-33.56Zm2.36,0V371.7H199Zm19.76-17.16,11-10.81,4.2,1.58Z" transform="translate(-76.26 -270.15)"/></svg>