<svg xmlns="http://www.w3.org/2000/svg" viewBox="0 0 62 80.1"><defs><style>.cls-1{fill:#fff;}</style></defs><title>Asset 2</title><g id="Layer_2" data-name="Layer 2"><g id="Layer_1-2" data-name="Layer 1"><g id="a"><path class="cls-1" d="M17.6.1,15.8,0C8.4,0,4.7,4.3,4.8,13V29.5c0,3.6-1.2,5.6-3.7,6.1L0,36.3v7.3l.5.1c.1,0,.2.1.3.1s.3.1.4.1a4.42,4.42,0,0,1,2.9,1.9,10.53,10.53,0,0,1,.8,4.6V65.9c0,4.9.9,8.5,2.8,10.8s4.8,3.4,8.8,3.3H19V73H16.9c-1.9,0-3.1-.3-3.7-1s-.8-2.1-.8-4.5V50.1a16.22,16.22,0,0,0-.8-5.6,15.43,15.43,0,0,0-2.9-4.3l1.8-1.8,1.1-2.1.7-2.7.1-19.1c0-3.1.3-5,.7-5.8s1.7-1.3,3.7-1.3H19V.5A2,2,0,0,0,17.6.1M62,43.8V36.5l-.4-.1c-.1,0-.2-.1-.3-.1s-.3-.1-.4-.1A4.18,4.18,0,0,1,58,34.3a10.22,10.22,0,0,1-.8-4.6V14.2c0-4.9-.9-8.5-2.8-10.8S49.7,0,45.7.1H43v7h2.2c1.9,0,3.1.3,3.7,1s.8,2.1.8,4.4V30a19.11,19.11,0,0,0,.8,5.7,16.89,16.89,0,0,0,3,4.3,9.15,9.15,0,0,0-2.9,4,17.35,17.35,0,0,0-.8,5.9V65.7c0,3.1-.3,5-.8,5.8s-1.8,1.2-3.7,1.2H43v7a2.5,2.5,0,0,0,1.3.3l1.8.1c7.4,0,11.1-4.3,11.1-13.1V50.5c0-3.6,1.3-5.6,3.8-6Z"/></g></g></g></svg>